<?xml version="1.0" encoding="UTF-8" standalone="no"?><svg xmlns="http://www.w3.org/2000/svg" xmlns:xlink="http://www.w3.org/1999/xlink" contentScriptType="application/ecmascript" contentStyleType="text/css" height="934px" preserveAspectRatio="none" style="width:1239px;height:934px;" version="1.1" viewBox="0 0 1239 934" width="1239px" zoomAndPan="magnify"><defs><filter height="300%" id="fajx9txmvkbpk" width="300%" x="-1" y="-1"><feGaussianBlur result="blurOut" stdDeviation="2.0"/><feColorMatrix in="blurOut" result="blurOut2" type="matrix" values="0 0 0 0 0 0 0 0 0 0 0 0 0 0 0 0 0 0 .4 0"/><feOffset dx="4.0" dy="4.0" in="blurOut2" result="blurOut3"/><feBlend in="SourceGraphic" in2="blurOut3" mode="normal"/></filter></defs><g><!--MD5=[2c0eb090db8b21e709837b6a1c4dc039]
cluster Node--><rect fill="#FFFFFF" filter="url(#fajx9txmvkbpk)" height="844" style="stroke:#000000;stroke-width:1.5;" width="1220" x="7" y="78.6948"/><text fill="#000000" font-family="sans-serif" font-size="14" font-weight="bold" lengthAdjust="spacingAndGlyphs" textLength="36" x="599" y="93.6899">Node</text><!--MD5=[29cd3a942c7b535b810bc277797245ab]
cluster client_deployment--><rect fill="#FFFFFF" filter="url(#fajx9txmvkbpk)" height="261" style="stroke:#000000;stroke-width:1.5;" width="346" x="141" y="351.6948"/><polygon fill="#FFFFFF" points="470,356.6948,470,370.6948,482,370.6948,482,362.6948,476,356.6948,470,356.6948" style="stroke:#000000;stroke-width:1.5;"/><line style="stroke:#000000;stroke-width:1.5;" x1="476" x2="476" y1="356.6948" y2="362.6948"/><line style="stroke:#000000;stroke-width:1.5;" x1="482" x2="476" y1="362.6948" y2="362.6948"/><text fill="#000000" font-family="sans-serif" font-size="14" font-style="italic" lengthAdjust="spacingAndGlyphs" textLength="93" x="267.5" y="366.6899">«Deployment»</text><text fill="#000000" font-family="sans-serif" font-size="14" font-weight="bold" lengthAdjust="spacingAndGlyphs" textLength="129" x="249.5" y="382.9868">client-deployment</text><!--MD5=[d8efce3139327df9b97f9b7945ea4c3a]
cluster api_deployment--><rect fill="#FFFFFF" filter="url(#fajx9txmvkbpk)" height="145" style="stroke:#000000;stroke-width:1.5;" width="538" x="495" y="351.6948"/><polygon fill="#FFFFFF" points="1016,356.6948,1016,370.6948,1028,370.6948,1028,362.6948,1022,356.6948,1016,356.6948" style="stroke:#000000;stroke-width:1.5;"/><line style="stroke:#000000;stroke-width:1.5;" x1="1022" x2="1022" y1="356.6948" y2="362.6948"/><line style="stroke:#000000;stroke-width:1.5;" x1="1028" x2="1022" y1="362.6948" y2="362.6948"/><text fill="#000000" font-family="sans-serif" font-size="14" font-style="italic" lengthAdjust="spacingAndGlyphs" textLength="93" x="717.5" y="366.6899">«Deployment»</text><text fill="#000000" font-family="sans-serif" font-size="14" font-weight="bold" lengthAdjust="spacingAndGlyphs" textLength="111" x="708.5" y="382.9868">api-deployment</text><!--MD5=[5c3d57abe7f6706e063251945d7c3dd8]
cluster postgres_deployment--><rect fill="#FFFFFF" filter="url(#fajx9txmvkbpk)" height="138" style="stroke:#000000;stroke-width:1.5;" width="306" x="255" y="662.6948"/><polygon fill="#FFFFFF" points="544,667.6948,544,681.6948,556,681.6948,556,673.6948,550,667.6948,544,667.6948" style="stroke:#000000;stroke-width:1.5;"/><line style="stroke:#000000;stroke-width:1.5;" x1="550" x2="550" y1="667.6948" y2="673.6948"/><line style="stroke:#000000;stroke-width:1.5;" x1="556" x2="550" y1="673.6948" y2="673.6948"/><text fill="#000000" font-family="sans-serif" font-size="14" font-style="italic" lengthAdjust="spacingAndGlyphs" textLength="93" x="361.5" y="677.6899">«Deployment»</text><text fill="#000000" font-family="sans-serif" font-size="14" font-weight="bold" lengthAdjust="spacingAndGlyphs" textLength="151" x="332.5" y="693.9868">postgres-deployment</text><!--MD5=[4301c0e4160f7a4f529c6db5205b60b5]
cluster redis_deployment--><rect fill="#FFFFFF" filter="url(#fajx9txmvkbpk)" height="138" style="stroke:#000000;stroke-width:1.5;" width="229" x="624" y="662.6948"/><polygon fill="#FFFFFF" points="836,667.6948,836,681.6948,848,681.6948,848,673.6948,842,667.6948,836,667.6948" style="stroke:#000000;stroke-width:1.5;"/><line style="stroke:#000000;stroke-width:1.5;" x1="842" x2="842" y1="667.6948" y2="673.6948"/><line style="stroke:#000000;stroke-width:1.5;" x1="848" x2="842" y1="673.6948" y2="673.6948"/><text fill="#000000" font-family="sans-serif" font-size="14" font-style="italic" lengthAdjust="spacingAndGlyphs" textLength="93" x="692" y="677.6899">«Deployment»</text><text fill="#000000" font-family="sans-serif" font-size="14" font-weight="bold" lengthAdjust="spacingAndGlyphs" textLength="124" x="676.5" y="693.9868">redis-deployment</text><!--MD5=[deccfd75babb5258220d22603044e9e4]
cluster worker_deployment--><rect fill="#FFFFFF" filter="url(#fajx9txmvkbpk)" height="123" style="stroke:#000000;stroke-width:1.5;" width="154" x="1049" y="373.6948"/><polygon fill="#FFFFFF" points="1186,378.6948,1186,392.6948,1198,392.6948,1198,384.6948,1192,378.6948,1186,378.6948" style="stroke:#000000;stroke-width:1.5;"/><line style="stroke:#000000;stroke-width:1.5;" x1="1192" x2="1192" y1="378.6948" y2="384.6948"/><line style="stroke:#000000;stroke-width:1.5;" x1="1198" x2="1192" y1="384.6948" y2="384.6948"/><text fill="#000000" font-family="sans-serif" font-size="14" font-style="italic" lengthAdjust="spacingAndGlyphs" textLength="93" x="1079.5" y="388.6899">«Deployment»</text><text fill="#000000" font-family="sans-serif" font-size="14" font-weight="bold" lengthAdjust="spacingAndGlyphs" textLength="138" x="1057" y="404.9868">worker-deployment</text><!--MD5=[8cb5863c346f61ed6248b5ff034fa0e1]
entity postgres_storage--><path d="M208,854.6948 C208,844.6948 335,844.6948 335,844.6948 C335,844.6948 462,844.6948 462,854.6948 L462,896.2885 C462,906.2885 335,906.2885 335,906.2885 C335,906.2885 208,906.2885 208,896.2885 L208,854.6948 " fill="#FEFECE" filter="url(#fajx9txmvkbpk)" style="stroke:#000000;stroke-width:1.5;"/><path d="M208,854.6948 C208,864.6948 335,864.6948 335,864.6948 C335,864.6948 462,864.6948 462,854.6948 " fill="none" style="stroke:#000000;stroke-width:1.5;"/><text fill="#000000" font-family="sans-serif" font-size="14" font-style="italic" lengthAdjust="spacingAndGlyphs" textLength="234" x="218" y="881.6899">«database-persistent-volume-claim»</text><text fill="#000000" font-family="sans-serif" font-size="14" lengthAdjust="spacingAndGlyphs" textLength="107" x="281.5" y="897.9868">postgres-storage</text><text fill="#000000" font-family="sans-serif" font-size="14" lengthAdjust="spacingAndGlyphs" textLength="32" x="143" y="330.393">3000</text><rect fill="#A80036" height="12" style="stroke:#FEFECE;stroke-width:1.5;" width="12" x="153" y="345.6948"/><!--MD5=[e8d211984e446fe889b37afb0ee45003]
entity client-pod-1--><rect fill="#FEFECE" filter="url(#fajx9txmvkbpk)" height="55.5938" style="stroke:#000000;stroke-width:1.5;" width="108" x="220" y="424.6948"/><polygon fill="#FEFECE" points="311,429.6948,311,443.6948,323,443.6948,323,435.6948,317,429.6948,311,429.6948" style="stroke:#000000;stroke-width:1.5;"/><line style="stroke:#000000;stroke-width:1.5;" x1="317" x2="317" y1="429.6948" y2="435.6948"/><line style="stroke:#000000;stroke-width:1.5;" x1="323" x2="317" y1="435.6948" y2="435.6948"/><text fill="#000000" font-family="sans-serif" font-size="14" font-style="italic" lengthAdjust="spacingAndGlyphs" textLength="38" x="250" y="450.6899">«Pod»</text><text fill="#000000" font-family="sans-serif" font-size="14" lengthAdjust="spacingAndGlyphs" textLength="78" x="230" y="466.9868">client-pod-1</text><!--MD5=[10ed768d930380ac1e1290ffc2b51b58]
entity client-pod-2--><rect fill="#FEFECE" filter="url(#fajx9txmvkbpk)" height="55.5938" style="stroke:#000000;stroke-width:1.5;" width="108" x="363" y="424.6948"/><polygon fill="#FEFECE" points="454,429.6948,454,443.6948,466,443.6948,466,435.6948,460,429.6948,454,429.6948" style="stroke:#000000;stroke-width:1.5;"/><line style="stroke:#000000;stroke-width:1.5;" x1="460" x2="460" y1="429.6948" y2="435.6948"/><line style="stroke:#000000;stroke-width:1.5;" x1="466" x2="460" y1="435.6948" y2="435.6948"/><text fill="#000000" font-family="sans-serif" font-size="14" font-style="italic" lengthAdjust="spacingAndGlyphs" textLength="38" x="393" y="450.6899">«Pod»</text><text fill="#000000" font-family="sans-serif" font-size="14" lengthAdjust="spacingAndGlyphs" textLength="78" x="373" y="466.9868">client-pod-2</text><!--MD5=[f339b9681727e7073bf50fc60dca88cc]
entity client-pod-3--><rect fill="#FEFECE" filter="url(#fajx9txmvkbpk)" height="55.5938" style="stroke:#000000;stroke-width:1.5;" width="108" x="220" y="540.6948"/><polygon fill="#FEFECE" points="311,545.6948,311,559.6948,323,559.6948,323,551.6948,317,545.6948,311,545.6948" style="stroke:#000000;stroke-width:1.5;"/><line style="stroke:#000000;stroke-width:1.5;" x1="317" x2="317" y1="545.6948" y2="551.6948"/><line style="stroke:#000000;stroke-width:1.5;" x1="323" x2="317" y1="551.6948" y2="551.6948"/><text fill="#000000" font-family="sans-serif" font-size="14" font-style="italic" lengthAdjust="spacingAndGlyphs" textLength="38" x="250" y="566.6899">«Pod»</text><text fill="#000000" font-family="sans-serif" font-size="14" lengthAdjust="spacingAndGlyphs" textLength="78" x="230" y="582.9868">client-pod-3</text><!--MD5=[5838b54efffcb2bfea6379d1237625c7]
entity client_cluster_ip_service--><rect fill="#FFFFFF" filter="url(#fajx9txmvkbpk)" height="55.5938" style="stroke:#000000;stroke-width:1.5;" width="183" x="115.5" y="229.6948"/><polygon fill="#FFFFFF" points="281.5,234.6948,281.5,248.6948,293.5,248.6948,293.5,240.6948,287.5,234.6948,281.5,234.6948" style="stroke:#000000;stroke-width:1.5;"/><line style="stroke:#000000;stroke-width:1.5;" x1="287.5" x2="287.5" y1="234.6948" y2="240.6948"/><line style="stroke:#000000;stroke-width:1.5;" x1="293.5" x2="287.5" y1="240.6948" y2="240.6948"/><text fill="#000000" font-family="sans-serif" font-size="14" font-style="italic" lengthAdjust="spacingAndGlyphs" textLength="60" x="172" y="255.6899">«Service»</text><text fill="#000000" font-family="sans-serif" font-size="14" lengthAdjust="spacingAndGlyphs" textLength="153" x="125.5" y="271.9868">client-cluster-ip-service</text><text fill="#000000" font-family="sans-serif" font-size="14" lengthAdjust="spacingAndGlyphs" textLength="32" x="715" y="330.393">5000</text><rect fill="#A80036" height="12" style="stroke:#FEFECE;stroke-width:1.5;" width="12" x="725" y="345.6948"/><!--MD5=[939fa4e3fb621525d5f495ce5cfb5bd0]
entity api_pod_1--><rect fill="#FEFECE" filter="url(#fajx9txmvkbpk)" height="55.5938" style="stroke:#000000;stroke-width:1.5;" width="91" x="637.5" y="424.6948"/><polygon fill="#FEFECE" points="711.5,429.6948,711.5,443.6948,723.5,443.6948,723.5,435.6948,717.5,429.6948,711.5,429.6948" style="stroke:#000000;stroke-width:1.5;"/><line style="stroke:#000000;stroke-width:1.5;" x1="717.5" x2="717.5" y1="429.6948" y2="435.6948"/><line style="stroke:#000000;stroke-width:1.5;" x1="723.5" x2="717.5" y1="435.6948" y2="435.6948"/><text fill="#000000" font-family="sans-serif" font-size="14" font-style="italic" lengthAdjust="spacingAndGlyphs" textLength="38" x="659" y="450.6899">«Pod»</text><text fill="#000000" font-family="sans-serif" font-size="14" lengthAdjust="spacingAndGlyphs" textLength="61" x="647.5" y="466.9868">api-pod-1</text><!--MD5=[a18af9c8df1167efa48e0600275e7932]
entity api_pod_2--><rect fill="#FEFECE" filter="url(#fajx9txmvkbpk)" height="55.5938" style="stroke:#000000;stroke-width:1.5;" width="91" x="511.5" y="424.6948"/><polygon fill="#FEFECE" points="585.5,429.6948,585.5,443.6948,597.5,443.6948,597.5,435.6948,591.5,429.6948,585.5,429.6948" style="stroke:#000000;stroke-width:1.5;"/><line style="stroke:#000000;stroke-width:1.5;" x1="591.5" x2="591.5" y1="429.6948" y2="435.6948"/><line style="stroke:#000000;stroke-width:1.5;" x1="597.5" x2="591.5" y1="435.6948" y2="435.6948"/><text fill="#000000" font-family="sans-serif" font-size="14" font-style="italic" lengthAdjust="spacingAndGlyphs" textLength="38" x="533" y="450.6899">«Pod»</text><text fill="#000000" font-family="sans-serif" font-size="14" lengthAdjust="spacingAndGlyphs" textLength="61" x="521.5" y="466.9868">api-pod-2</text><!--MD5=[decadfc6bf190a611b39ac9e3ad63220]
entity api_pod_3--><rect fill="#FEFECE" filter="url(#fajx9txmvkbpk)" height="55.5938" style="stroke:#000000;stroke-width:1.5;" width="91" x="763.5" y="424.6948"/><polygon fill="#FEFECE" points="837.5,429.6948,837.5,443.6948,849.5,443.6948,849.5,435.6948,843.5,429.6948,837.5,429.6948" style="stroke:#000000;stroke-width:1.5;"/><line style="stroke:#000000;stroke-width:1.5;" x1="843.5" x2="843.5" y1="429.6948" y2="435.6948"/><line style="stroke:#000000;stroke-width:1.5;" x1="849.5" x2="843.5" y1="435.6948" y2="435.6948"/><text fill="#000000" font-family="sans-serif" font-size="14" font-style="italic" lengthAdjust="spacingAndGlyphs" textLength="38" x="785" y="450.6899">«Pod»</text><text fill="#000000" font-family="sans-serif" font-size="14" lengthAdjust="spacingAndGlyphs" textLength="61" x="773.5" y="466.9868">api-pod-3</text><!--MD5=[a0f0e5daef749ecaf32288eab1a4ce7e]
entity api_cluster_ip_service--><rect fill="#FFFFFF" filter="url(#fajx9txmvkbpk)" height="55.5938" style="stroke:#000000;stroke-width:1.5;" width="166" x="380" y="229.6948"/><polygon fill="#FFFFFF" points="529,234.6948,529,248.6948,541,248.6948,541,240.6948,535,234.6948,529,234.6948" style="stroke:#000000;stroke-width:1.5;"/><line style="stroke:#000000;stroke-width:1.5;" x1="535" x2="535" y1="234.6948" y2="240.6948"/><line style="stroke:#000000;stroke-width:1.5;" x1="541" x2="535" y1="240.6948" y2="240.6948"/><text fill="#000000" font-family="sans-serif" font-size="14" font-style="italic" lengthAdjust="spacingAndGlyphs" textLength="60" x="428" y="255.6899">«Service»</text><text fill="#000000" font-family="sans-serif" font-size="14" lengthAdjust="spacingAndGlyphs" textLength="136" x="390" y="271.9868">api-cluster-ip-service</text><text fill="#000000" font-family="sans-serif" font-size="14" lengthAdjust="spacingAndGlyphs" textLength="32" x="527" y="641.393">5432</text><rect fill="#A80036" height="12" style="stroke:#FEFECE;stroke-width:1.5;" width="12" x="537" y="656.6948"/><!--MD5=[1ed7e30d34847aec1f53f81d20908129]
entity postgres_pod_1--><rect fill="#FEFECE" filter="url(#fajx9txmvkbpk)" height="55.5938" style="stroke:#000000;stroke-width:1.5;" width="127" x="271.5" y="728.6948"/><polygon fill="#FEFECE" points="381.5,733.6948,381.5,747.6948,393.5,747.6948,393.5,739.6948,387.5,733.6948,381.5,733.6948" style="stroke:#000000;stroke-width:1.5;"/><line style="stroke:#000000;stroke-width:1.5;" x1="387.5" x2="387.5" y1="733.6948" y2="739.6948"/><line style="stroke:#000000;stroke-width:1.5;" x1="393.5" x2="387.5" y1="739.6948" y2="739.6948"/><text fill="#000000" font-family="sans-serif" font-size="14" font-style="italic" lengthAdjust="spacingAndGlyphs" textLength="38" x="311" y="754.6899">«Pod»</text><text fill="#000000" font-family="sans-serif" font-size="14" lengthAdjust="spacingAndGlyphs" textLength="97" x="281.5" y="770.9868">postgres-pod-1</text><!--MD5=[df4d45745fecf659a9496a56f17565f8]
entity postgres_cluster_ip_service--><rect fill="#FFFFFF" filter="url(#fajx9txmvkbpk)" height="55.5938" style="stroke:#000000;stroke-width:1.5;" width="202" x="495" y="540.6948"/><polygon fill="#FFFFFF" points="680,545.6948,680,559.6948,692,559.6948,692,551.6948,686,545.6948,680,545.6948" style="stroke:#000000;stroke-width:1.5;"/><line style="stroke:#000000;stroke-width:1.5;" x1="686" x2="686" y1="545.6948" y2="551.6948"/><line style="stroke:#000000;stroke-width:1.5;" x1="692" x2="686" y1="551.6948" y2="551.6948"/><text fill="#000000" font-family="sans-serif" font-size="14" font-style="italic" lengthAdjust="spacingAndGlyphs" textLength="60" x="561" y="566.6899">«Service»</text><text fill="#000000" font-family="sans-serif" font-size="14" lengthAdjust="spacingAndGlyphs" textLength="172" x="505" y="582.9868">postgres-cluster-ip-service</text><text fill="#000000" font-family="sans-serif" font-size="14" lengthAdjust="spacingAndGlyphs" textLength="32" x="819" y="641.393">6379</text><rect fill="#A80036" height="12" style="stroke:#FEFECE;stroke-width:1.5;" width="12" x="829" y="656.6948"/><!--MD5=[76f51b82059f858875e98aef11e0ad1e]
entity redis-pod-1--><rect fill="#FEFECE" filter="url(#fajx9txmvkbpk)" height="55.5938" style="stroke:#000000;stroke-width:1.5;" width="104" x="640" y="728.6948"/><polygon fill="#FEFECE" points="727,733.6948,727,747.6948,739,747.6948,739,739.6948,733,733.6948,727,733.6948" style="stroke:#000000;stroke-width:1.5;"/><line style="stroke:#000000;stroke-width:1.5;" x1="733" x2="733" y1="733.6948" y2="739.6948"/><line style="stroke:#000000;stroke-width:1.5;" x1="739" x2="733" y1="739.6948" y2="739.6948"/><text fill="#000000" font-family="sans-serif" font-size="14" font-style="italic" lengthAdjust="spacingAndGlyphs" textLength="38" x="668" y="754.6899">«Pod»</text><text fill="#000000" font-family="sans-serif" font-size="14" lengthAdjust="spacingAndGlyphs" textLength="74" x="650" y="770.9868">redis-pod-1</text><!--MD5=[786464f58ff4bd14cddc992cf42fc0e4]
entity redis_cluster_ip_service--><rect fill="#FFFFFF" filter="url(#fajx9txmvkbpk)" height="55.5938" style="stroke:#000000;stroke-width:1.5;" width="179" x="732.5" y="540.6948"/><polygon fill="#FFFFFF" points="894.5,545.6948,894.5,559.6948,906.5,559.6948,906.5,551.6948,900.5,545.6948,894.5,545.6948" style="stroke:#000000;stroke-width:1.5;"/><line style="stroke:#000000;stroke-width:1.5;" x1="900.5" x2="900.5" y1="545.6948" y2="551.6948"/><line style="stroke:#000000;stroke-width:1.5;" x1="906.5" x2="900.5" y1="551.6948" y2="551.6948"/><text fill="#000000" font-family="sans-serif" font-size="14" font-style="italic" lengthAdjust="spacingAndGlyphs" textLength="60" x="787" y="566.6899">«Service»</text><text fill="#000000" font-family="sans-serif" font-size="14" lengthAdjust="spacingAndGlyphs" textLength="149" x="742.5" y="582.9868">redis-cluster-ip-service</text><!--MD5=[af2b97e4d1b1b181c0bbbf77bf7462d3]
entity worker_pod_1--><rect fill="#FEFECE" filter="url(#fajx9txmvkbpk)" height="55.5938" style="stroke:#000000;stroke-width:1.5;" width="115" x="1065.5" y="424.6948"/><polygon fill="#FEFECE" points="1163.5,429.6948,1163.5,443.6948,1175.5,443.6948,1175.5,435.6948,1169.5,429.6948,1163.5,429.6948" style="stroke:#000000;stroke-width:1.5;"/><line style="stroke:#000000;stroke-width:1.5;" x1="1169.5" x2="1169.5" y1="429.6948" y2="435.6948"/><line style="stroke:#000000;stroke-width:1.5;" x1="1175.5" x2="1169.5" y1="435.6948" y2="435.6948"/><text fill="#000000" font-family="sans-serif" font-size="14" font-style="italic" lengthAdjust="spacingAndGlyphs" textLength="38" x="1099" y="450.6899">«Pod»</text><text fill="#000000" font-family="sans-serif" font-size="14" lengthAdjust="spacingAndGlyphs" textLength="85" x="1075.5" y="466.9868">worker-pod-1</text><!--MD5=[e2ab335dbb994a55ca0ac6362cea940f]
entity ingress_service--><rect fill="#FFFFFF" filter="url(#fajx9txmvkbpk)" height="55.5938" style="stroke:#000000;stroke-width:1.5;" width="127" x="271.5" y="113.6948"/><polygon fill="#FFFFFF" points="381.5,118.6948,381.5,132.6948,393.5,132.6948,393.5,124.6948,387.5,118.6948,381.5,118.6948" style="stroke:#000000;stroke-width:1.5;"/><line style="stroke:#000000;stroke-width:1.5;" x1="387.5" x2="387.5" y1="118.6948" y2="124.6948"/><line style="stroke:#000000;stroke-width:1.5;" x1="393.5" x2="387.5" y1="124.6948" y2="124.6948"/><text fill="#000000" font-family="sans-serif" font-size="14" font-style="italic" lengthAdjust="spacingAndGlyphs" textLength="61" x="299.5" y="139.6899">«Ingress»</text><text fill="#000000" font-family="sans-serif" font-size="14" lengthAdjust="spacingAndGlyphs" textLength="97" x="281.5" y="155.9868">ingress-service</text><!--MD5=[f85424c117d14d40f09ab424cc9bdca6]
entity traffic--><path d="M310.0949,16.6973 C312.4559,10.5982 318.1645,9.3993 322.2344,14.9106 C325.8758,7.0158 330.116,6 336.0803,12.7081 C340.3929,7.6874 346.1148,8.2718 348.5918,14.712 C353.1555,9.362 358.4581,11.0864 361.0613,16.9015 C368.7778,19.0977 371.9459,26.0719 364.8015,31.9594 C370.7663,37.2716 370.5835,43.7033 362.605,46.9761 C360.0481,55.1242 354.9278,55.8879 348.7131,50.8214 C346.9015,57.875 341.7965,57.9686 337.1711,53.6862 C332.0942,58.8171 325.1217,58.6819 322.8737,50.6202 C318.0728,56.694 312.4492,53.4917 310.4313,47.7015 C301.9312,45.1747 301.2998,39.0275 306.5049,32.872 C299.8642,26.987 302.4472,19.4109 310.0949,16.6973 " fill="#FEFECE" filter="url(#fajx9txmvkbpk)" style="stroke:#000000;stroke-width:1.5;"/><text fill="#000000" font-family="sans-serif" font-size="14" lengthAdjust="spacingAndGlyphs" textLength="38" x="316" y="35.6899">Traffic</text><!--MD5=[01058637f64e4c09c91d8ffc4946e66f]
link client_cluster_ip_service to client_deployment_3000--><path d="M192.86,285.8048 C183.19,304.3348 170.94,327.8148 164.14,340.8448 " fill="none" id="client_cluster_ip_service-to-client_deployment_3000" style="stroke:#A80036;stroke-width:1.0;"/><polygon fill="#A80036" points="161.74,345.4448,169.4379,339.3013,164.0445,341.0075,162.3383,335.6141,161.74,345.4448" style="stroke:#A80036;stroke-width:1.0;"/><!--MD5=[ba9ccfcc9b3296070ac1c76711c19a0f]
link api_cluster_ip_service to api_deployment_5000--><path d="M541.96,285.8048 C605.92,307.7548 690.12,336.6648 719.95,346.9048 " fill="none" id="api_cluster_ip_service-to-api_deployment_5000" style="stroke:#A80036;stroke-width:1.0;"/><polygon fill="#A80036" points="724.87,348.5848,717.6631,341.8721,720.1425,346.9566,715.058,349.436,724.87,348.5848" style="stroke:#A80036;stroke-width:1.0;"/><!--MD5=[ee1a7f13fb92ffda1d727c2713cdfe39]
link postgres_pod_1 to postgres_storage--><path d="M335,784.8348 C335,800.9848 335,821.6648 335,839.1048 " fill="none" id="postgres_pod_1-to-postgres_storage" style="stroke:#A80036;stroke-width:1.0;"/><polygon fill="#A80036" points="335,844.4148,339,835.4148,335,839.4148,331,835.4148,335,844.4148" style="stroke:#A80036;stroke-width:1.0;"/><!--MD5=[f62ada3e89905a04382c5a347bb28fbc]
link postgres_cluster_ip_service to postgres_deployment_5432--><path d="M580.38,596.8048 C569.71,615.3348 556.18,638.8148 548.68,651.8448 " fill="none" id="postgres_cluster_ip_service-to-postgres_deployment_5432" style="stroke:#A80036;stroke-width:1.0;"/><polygon fill="#A80036" points="546.03,656.4448,553.9867,650.6404,548.5245,652.1115,547.0535,646.6492,546.03,656.4448" style="stroke:#A80036;stroke-width:1.0;"/><!--MD5=[be1e78d366dff1799042489f36295c31]
link api_pod_1 to postgres_cluster_ip_service--><path d="M662.38,480.7148 C649.69,497.3448 633.36,518.7348 620.08,536.1448 " fill="none" id="api_pod_1-to-postgres_cluster_ip_service" style="stroke:#A80036;stroke-width:1.0;"/><polygon fill="#A80036" points="616.77,540.4748,625.4,535.7289,619.7951,536.4937,619.0302,530.8888,616.77,540.4748" style="stroke:#A80036;stroke-width:1.0;"/><!--MD5=[d3439575d05c3597e8bd34a925889556]
link api_pod_2 to postgres_cluster_ip_service--><path d="M566.24,480.7148 C571.88,497.2048 579.13,518.3748 585.05,535.6948 " fill="none" id="api_pod_2-to-postgres_cluster_ip_service" style="stroke:#A80036;stroke-width:1.0;"/><polygon fill="#A80036" points="586.69,540.4748,587.5768,530.6659,585.079,535.7414,580.0034,533.2436,586.69,540.4748" style="stroke:#A80036;stroke-width:1.0;"/><!--MD5=[addfc1de7a3c8abf808be8383341bc91]
link api_pod_3 to postgres_cluster_ip_service--><path d="M778.88,480.9548 C768.86,489.2248 757.35,497.9048 746,504.6948 C724.5,517.5548 699.9,529.0648 676.91,538.6148 " fill="none" id="api_pod_3-to-postgres_cluster_ip_service" style="stroke:#A80036;stroke-width:1.0;"/><polygon fill="#A80036" points="672.04,540.6248,681.8855,540.8815,676.6604,538.7139,678.828,533.4888,672.04,540.6248" style="stroke:#A80036;stroke-width:1.0;"/><!--MD5=[ad905cabd843ca22743fdb314ee166ad]
link redis_cluster_ip_service to redis_deployment_6379--><path d="M825.83,596.8048 C828.4,615.0048 831.65,637.9848 833.51,651.1448 " fill="none" id="redis_cluster_ip_service-to-redis_deployment_6379" style="stroke:#A80036;stroke-width:1.0;"/><polygon fill="#A80036" points="834.26,656.4448,836.9585,646.9728,833.5589,651.4942,829.0375,648.0946,834.26,656.4448" style="stroke:#A80036;stroke-width:1.0;"/><!--MD5=[6b5d4edb5e6089420f97c456c444da12]
link api_pod_1 to redis_cluster_ip_service--><path d="M715.94,480.7148 C736.65,497.6948 763.41,519.6448 784.87,537.2448 " fill="none" id="api_pod_1-to-redis_cluster_ip_service" style="stroke:#A80036;stroke-width:1.0;"/><polygon fill="#A80036" points="788.81,540.4748,784.3986,531.6691,784.9479,537.2993,779.3177,537.8485,788.81,540.4748" style="stroke:#A80036;stroke-width:1.0;"/><!--MD5=[4cd2a8593e01b92f96a8b0652f3ded0d]
link api_pod_2 to redis_cluster_ip_service--><path d="M585.79,480.8248 C596.01,489.3748 607.97,498.2548 620,504.6948 C639.34,515.0448 684.58,529.4448 727.35,541.8648 " fill="none" id="api_pod_2-to-redis_cluster_ip_service" style="stroke:#A80036;stroke-width:1.0;"/><polygon fill="#A80036" points="732.28,543.2948,724.76,536.9348,727.48,541.8948,722.52,544.6148,732.28,543.2948" style="stroke:#A80036;stroke-width:1.0;"/><!--MD5=[4bbabb75f9def2f832f69f3a69de19a6]
link api_pod_3 to redis_cluster_ip_service--><path d="M812.08,480.7148 C813.95,497.0648 816.33,518.0148 818.3,535.2548 " fill="none" id="api_pod_3-to-redis_cluster_ip_service" style="stroke:#A80036;stroke-width:1.0;"/><polygon fill="#A80036" points="818.9,540.4748,821.8728,531.0853,818.3431,535.5059,813.9225,531.9763,818.9,540.4748" style="stroke:#A80036;stroke-width:1.0;"/><!--MD5=[a98a277ae50952f7de4d40b3ad52d0ea]
link worker_pod_1 to redis_cluster_ip_service--><path d="M1079.61,480.9048 C1065.14,489.2548 1048.7,498.0048 1033,504.6948 C995.89,520.5048 953.53,533.9848 916.55,544.3748 " fill="none" id="worker_pod_1-to-redis_cluster_ip_service" style="stroke:#A80036;stroke-width:1.0;"/><polygon fill="#A80036" points="911.6,545.7548,921.3477,547.1628,916.4124,544.3982,919.1771,539.4629,911.6,545.7548" style="stroke:#A80036;stroke-width:1.0;"/><!--MD5=[2c6b3f59995bbfb373ff9f54db9b79aa]
link ingress_service to client_cluster_ip_service--><path d="M304.67,169.7148 C285.68,186.6248 261.16,208.4648 241.44,226.0248 " fill="none" id="ingress_service-to-client_cluster_ip_service" style="stroke:#A80036;stroke-width:1.0;"/><polygon fill="#A80036" points="237.56,229.4748,246.9377,226.4651,241.2899,226.145,241.6101,220.4972,237.56,229.4748" style="stroke:#A80036;stroke-width:1.0;"/><!--MD5=[73c2aa8eb0fa4d1c28cc297ba31754ab]
link ingress_service to api_cluster_ip_service--><path d="M365.33,169.7148 C384.32,186.6248 408.84,208.4648 428.56,226.0248 " fill="none" id="ingress_service-to-api_cluster_ip_service" style="stroke:#A80036;stroke-width:1.0;"/><polygon fill="#A80036" points="432.44,229.4748,428.3899,220.4972,428.7101,226.145,423.0623,226.4651,432.44,229.4748" style="stroke:#A80036;stroke-width:1.0;"/><!--MD5=[3c9260ce5664442c46f56b198d995bdd]
link traffic to ingress_service--><path d="M335,53.7548 C335,69.4248 335,90.7248 335,108.3148 " fill="none" id="traffic-to-ingress_service" style="stroke:#A80036;stroke-width:1.0;"/><polygon fill="#A80036" points="335,113.6548,339,104.6548,335,108.6548,331,104.6548,335,113.6548" style="stroke:#A80036;stroke-width:1.0;"/><!--MD5=[7999cd8fa8cb30258727e4cd9fd6643f]
link client-pod-1 to client-pod-2--><!--MD5=[e268053057d62859082a0faaf896ae82]
link client-pod-1 to client-pod-3--><!--MD5=[4992db8c298d51b6f2f7b99e07985c05]
@startuml
'https://plantuml.com/deployment-diagram

cloud Traffic as traffic

rectangle Node {

    artifact client-deployment <<Deployment>> as client_deployment {

        portin 3000 as client_deployment_3000

        artifact "client-pod-1" <<Pod>>
        artifact "client-pod-2" <<Pod>>
        artifact "client-pod-3" <<Pod>>
    }
    artifact client-cluster-ip-service <<Service>> as client_cluster_ip_service {
    }
    client_cluster_ip_service - -> client_deployment_3000

    artifact api-deployment <<Deployment>> as api_deployment {

        portin 5000 as api_deployment_5000

        artifact "api-pod-1" <<Pod>> as api_pod_1
        artifact "api-pod-2" <<Pod>> as api_pod_2
        artifact "api-pod-3" <<Pod>> as api_pod_3
    }
    artifact api-cluster-ip-service <<Service>> as api_cluster_ip_service {
    }
    api_cluster_ip_service - -> api_deployment_5000

    artifact postgres-deployment <<Deployment>> as postgres_deployment {

        portin 5432 as postgres_deployment_5432

        artifact "postgres-pod-1" <<Pod>> as postgres_pod_1
    }
    artifact postgres-cluster-ip-service <<Service>> as postgres_cluster_ip_service {
    }
    database "postgres-storage" <<database-persistent-volume-claim>> as postgres_storage
    postgres_pod_1 - -> postgres_storage

    postgres_cluster_ip_service - -> postgres_deployment_5432

    api_pod_1 - -> postgres_cluster_ip_service
    api_pod_2 - -> postgres_cluster_ip_service
    api_pod_3 - -> postgres_cluster_ip_service

    artifact redis-deployment <<Deployment>> as redis_deployment {

        portin 6379 as redis_deployment_6379

        artifact "redis-pod-1" <<Pod>>
    }
    artifact redis-cluster-ip-service <<Service>> as redis_cluster_ip_service {
    }
    redis_cluster_ip_service - -> redis_deployment_6379

    api_pod_1 - -> redis_cluster_ip_service
    api_pod_2 - -> redis_cluster_ip_service
    api_pod_3 - -> redis_cluster_ip_service

    artifact worker-deployment <<Deployment>> as worker_deployment {

        artifact "worker-pod-1" <<Pod>> as worker_pod_1
    }

    worker_pod_1 - -> redis_cluster_ip_service

    artifact ingress-service <<Ingress>> as ingress_service {
    }

    ingress_service - -> client_cluster_ip_service
    ingress_service - -> api_cluster_ip_service
}

traffic - -> ingress_service
@enduml

@startuml

cloud Traffic as traffic

rectangle Node {

    artifact client-deployment <<Deployment>> as client_deployment {

        portin 3000 as client_deployment_3000

        artifact "client-pod-1" <<Pod>>
        artifact "client-pod-2" <<Pod>>
        artifact "client-pod-3" <<Pod>>
    }
    artifact client-cluster-ip-service <<Service>> as client_cluster_ip_service {
    }
    client_cluster_ip_service - -> client_deployment_3000

    artifact api-deployment <<Deployment>> as api_deployment {

        portin 5000 as api_deployment_5000

        artifact "api-pod-1" <<Pod>> as api_pod_1
        artifact "api-pod-2" <<Pod>> as api_pod_2
        artifact "api-pod-3" <<Pod>> as api_pod_3
    }
    artifact api-cluster-ip-service <<Service>> as api_cluster_ip_service {
    }
    api_cluster_ip_service - -> api_deployment_5000

    artifact postgres-deployment <<Deployment>> as postgres_deployment {

        portin 5432 as postgres_deployment_5432

        artifact "postgres-pod-1" <<Pod>> as postgres_pod_1
    }
    artifact postgres-cluster-ip-service <<Service>> as postgres_cluster_ip_service {
    }
    database "postgres-storage" <<database-persistent-volume-claim>> as postgres_storage
    postgres_pod_1 - -> postgres_storage

    postgres_cluster_ip_service - -> postgres_deployment_5432

    api_pod_1 - -> postgres_cluster_ip_service
    api_pod_2 - -> postgres_cluster_ip_service
    api_pod_3 - -> postgres_cluster_ip_service

    artifact redis-deployment <<Deployment>> as redis_deployment {

        portin 6379 as redis_deployment_6379

        artifact "redis-pod-1" <<Pod>>
    }
    artifact redis-cluster-ip-service <<Service>> as redis_cluster_ip_service {
    }
    redis_cluster_ip_service - -> redis_deployment_6379

    api_pod_1 - -> redis_cluster_ip_service
    api_pod_2 - -> redis_cluster_ip_service
    api_pod_3 - -> redis_cluster_ip_service

    artifact worker-deployment <<Deployment>> as worker_deployment {

        artifact "worker-pod-1" <<Pod>> as worker_pod_1
    }

    worker_pod_1 - -> redis_cluster_ip_service

    artifact ingress-service <<Ingress>> as ingress_service {
    }

    ingress_service - -> client_cluster_ip_service
    ingress_service - -> api_cluster_ip_service
}

traffic - -> ingress_service
@enduml

PlantUML version 1.2020.23(Sun Dec 13 19:14:58 GMT 2020)
(GPL source distribution)
Java Runtime: OpenJDK Runtime Environment
JVM: OpenJDK 64-Bit Server VM
Default Encoding: UTF-8
Language: en
Country: US
--></g></svg>